<svg width="78" height="117" viewBox="0 0 78 117" fill="none" xmlns="http://www.w3.org/2000/svg">
<path fill-rule="evenodd" clip-rule="evenodd" d="M16.027 93.784C14.5314 93.7465 13.1015 92.9983 12.1783 91.7347C11.3655 90.6218 11.013 89.2431 11.1858 87.8511C11.3586 86.4599 12.0361 85.2222 13.0932 84.367C19.4079 79.258 23.7593 73.6239 27.6436 65.5258C29.1629 62.3582 30.2946 59.3342 31.2051 56.0092C31.4509 55.1116 32.3417 54.5935 33.1946 54.8523C34.0475 55.1109 34.5397 56.0483 34.2939 56.9458C33.3266 60.4784 32.1252 63.6896 30.5133 67.0498C26.3977 75.6295 21.774 81.6105 15.0526 87.0485C14.6761 87.3535 14.4347 87.794 14.3732 88.2898C14.3116 88.7857 14.4372 89.277 14.7267 89.673C15.1124 90.2009 15.7183 90.4693 16.3485 90.3908C16.6641 90.3516 16.9657 90.2214 17.2203 90.0154C18.1498 89.2636 19.0547 88.4887 19.91 87.7129C20.5823 87.1029 21.5972 87.1823 22.1768 87.8894C22.7564 88.5975 22.6812 89.6649 22.0089 90.2749C21.1083 91.0926 20.1564 91.9068 19.1796 92.6978C18.4656 93.2748 17.6172 93.6395 16.7259 93.7501C16.4925 93.7795 16.2589 93.7902 16.027 93.784Z" fill="#E5AF61"/>
<path fill-rule="evenodd" clip-rule="evenodd" d="M26.5498 84.4996C26.1966 84.4901 25.8447 84.3492 25.5635 84.0726C24.9462 83.4643 24.904 82.4342 25.4691 81.7701C26.2006 80.911 26.915 80.0141 27.5924 79.1034C29.9651 75.916 32.09 72.2965 34.0885 68.0395C37.8314 60.066 38.9252 53.8327 40.5815 44.3974C40.6646 43.9242 40.5711 43.4445 40.3186 43.0467C40.0662 42.649 39.685 42.3808 39.2448 42.2915C38.8054 42.2024 38.3587 42.3026 37.9888 42.574C37.6189 42.8454 37.3697 43.2555 37.2866 43.7287C36.7544 46.7605 36.2954 49.3755 35.7948 51.8143C35.6143 52.6931 34.8054 53.2481 33.9883 53.0542C33.1711 52.8602 32.6548 51.9906 32.8353 51.1118C33.3259 48.7219 33.7809 46.1297 34.3078 43.1282C34.5416 41.7958 35.242 40.6444 36.2806 39.8822C37.3192 39.1201 38.5713 38.8386 39.8073 39.0892C41.0425 39.3399 42.1132 40.0931 42.8219 41.2098C43.5314 42.3265 43.7926 43.6732 43.5601 45.0018C41.8559 54.7098 40.7301 61.1236 36.794 69.5078C34.6999 73.9692 32.464 77.7743 29.9586 81.1404C29.2396 82.106 28.4812 83.0588 27.7046 83.9704C27.3967 84.332 26.9723 84.5099 26.5498 84.4996Z" fill="#AD6842"/>
<path fill-rule="evenodd" clip-rule="evenodd" d="M15.0545 100.282C11.9904 100.207 9.0401 98.854 6.93401 96.5021C6.32005 95.8168 6.36261 94.749 7.02909 94.1172C7.69556 93.4854 8.7336 93.529 9.34756 94.2151C11.1073 96.1799 13.6933 97.1659 16.2661 96.8536C17.7133 96.6774 19.0903 96.0998 20.2483 95.1841C24.4536 91.8587 28.0039 88.3063 31.1021 84.3241C33.9461 80.6694 36.477 76.552 38.8396 71.7386C40.2246 68.915 41.3596 66.1716 42.3086 63.3507C42.6045 62.4697 43.5388 62.0025 44.3953 62.3077C45.2517 62.6121 45.7059 63.5731 45.4092 64.4541C44.4117 67.4192 43.2213 70.2997 41.7688 73.2594C39.3033 78.2845 36.6518 82.5942 33.6641 86.434C30.3993 90.6298 26.6652 94.3672 22.2484 97.86C20.6215 99.1468 18.6861 99.9583 16.6514 100.206C16.1184 100.271 15.5845 100.296 15.0545 100.282Z" fill="#883A0A"/>
<path fill-rule="evenodd" clip-rule="evenodd" d="M1.49386 78.9281C1.23331 78.9217 0.971056 78.8501 0.732793 78.7061C0.0110578 78.2716 -0.21614 77.3429 0.225252 76.6315C1.27692 74.9373 2.62565 73.4604 4.23397 72.242C8.36028 69.1163 11.2333 65.7955 13.8408 61.1379C14.2494 60.4082 15.1811 60.1424 15.922 60.545C16.6628 60.9477 16.9321 61.8652 16.5235 62.5957C13.6996 67.6401 10.5827 71.2402 6.1013 74.6349C4.79166 75.6272 3.69396 76.8289 2.83888 78.2063C2.54319 78.683 2.02232 78.9408 1.49386 78.9281Z" fill="#9E4D2A"/>
<path fill-rule="evenodd" clip-rule="evenodd" d="M19.2666 56.6424C19.0871 56.6381 18.9055 56.6043 18.7277 56.5382C17.8667 56.2178 17.4277 55.258 17.7472 54.3946C19.2203 50.4142 19.9797 46.3797 21.2378 39.6957C21.9588 35.8654 23.8516 32.4471 26.7118 29.8106C29.5033 27.2373 32.967 25.6414 36.7286 25.1955C38.5354 24.9814 40.3601 25.0446 42.1524 25.3835C43.6229 25.6621 45.0504 26.1203 46.3938 26.7457C47.2268 27.1336 47.5889 28.1252 47.2022 28.9605C46.8155 29.7959 45.8264 30.1587 44.9934 29.7708C43.8991 29.2616 42.7355 28.8881 41.5351 28.6608C40.076 28.3848 38.5906 28.3333 37.1191 28.5076C34.0564 28.8707 31.2361 30.1703 28.9629 32.2658C26.6344 34.4123 25.0933 37.1955 24.5062 40.3142C23.2599 46.9357 22.4366 51.3101 20.8655 55.555C20.6119 56.2402 19.9566 56.6589 19.2666 56.6424Z" fill="#D98C50"/>
<path fill-rule="evenodd" clip-rule="evenodd" d="M50.6777 77.9995C50.0657 77.9863 49.4742 77.7019 49.1324 77.1967C46.4118 73.1676 45.74 69.1404 47.1365 65.2275C49.0168 59.9591 50.8521 54.5246 52.6403 46.0068C53.4463 42.1687 52.5394 38.2757 50.0862 35.0449C49.4095 34.1529 48.627 33.3305 47.7633 32.6004C47.0161 31.9689 46.9789 30.9124 47.682 30.2404C48.3842 29.5685 49.5603 29.5359 50.3076 30.1672C51.3682 31.0631 52.3259 32.0708 53.1544 33.1627C56.1668 37.1301 57.2803 41.9115 56.2912 46.6261C54.4628 55.3317 52.5913 60.8746 50.6738 66.2469C49.6211 69.1976 50.1705 72.2988 52.3083 75.4643C52.8411 76.2521 52.561 77.2794 51.6845 77.7574C51.3691 77.929 51.0205 78.0074 50.6777 77.9995Z" fill="#87524B"/>
<path fill-rule="evenodd" clip-rule="evenodd" d="M71.699 92.8567C71.5325 92.8523 71.3635 92.822 71.1978 92.763C67.4733 91.4259 62.1641 89.2669 58.0187 86.5702C57.7873 86.4193 55.6868 85.0276 53.3925 82.6535C52.7658 82.0058 52.7752 80.9644 53.4139 80.3279C54.0525 79.6915 55.078 79.7019 55.7039 80.3496C57.7839 82.5026 59.6854 83.7486 59.7656 83.8007C63.6506 86.3274 68.714 88.3824 72.2771 89.6614C73.1207 89.964 73.5621 90.9039 73.2641 91.7606C73.025 92.4482 72.3804 92.8731 71.699 92.8567Z" fill="#D98C50"/>
<path fill-rule="evenodd" clip-rule="evenodd" d="M71.6891 85.4281C71.5294 85.4237 71.368 85.3952 71.2083 85.3401C68.1573 84.2771 65.7522 83.2478 63.6398 82.1012C60.928 80.6274 58.7427 78.9795 56.9592 77.0622C54.4767 74.393 53.0083 70.9558 52.9302 67.6333C52.8941 66.0947 53.4592 63.4459 55.016 57.8621C55.265 56.967 56.1675 56.4515 57.0322 56.7093C57.896 56.9679 58.3949 57.9021 58.145 58.7963C57.2159 62.1313 56.1537 66.14 56.1864 67.5515C56.2447 70.0412 57.3816 72.6553 59.306 74.7237C62.8575 78.5431 68.0878 80.6959 72.2473 82.1438C73.1 82.4407 73.5585 83.3971 73.2717 84.2797C73.0381 84.997 72.3838 85.445 71.6891 85.4281Z" fill="#F2BF6D"/>
<path fill-rule="evenodd" clip-rule="evenodd" d="M57.4111 54.7853C57.2702 54.7818 57.1267 54.7595 56.9841 54.7168C56.1101 54.4548 55.6109 53.5211 55.8683 52.6316C56.6232 50.0209 57.3815 47.3642 57.6198 46.0755C58.6486 40.527 57.492 34.9004 54.3621 30.2323C51.2331 25.5639 46.5082 22.4161 41.0572 21.3688C39.9519 21.1564 38.8222 21.0347 37.7003 21.0073C36.7237 20.9834 35.7358 21.0305 34.7646 21.1475C30.3997 21.6729 26.3806 23.5528 23.1421 26.584C22.5513 27.1368 21.9881 27.7273 21.4679 28.339C20.8716 29.0401 19.83 29.1165 19.1413 28.5095C18.4526 27.9026 18.3776 26.8421 18.9738 26.141C19.5756 25.4333 20.2269 24.7505 20.9094 24.1116C24.6619 20.5995 29.3191 18.4211 34.3773 17.8123C35.5027 17.6768 36.6472 17.6222 37.7794 17.6499C39.0796 17.6817 40.3884 17.8226 41.6694 18.0687C47.9858 19.2824 53.4611 22.9299 57.0867 28.3391C60.7132 33.7482 62.0533 40.2683 60.8619 46.6985C60.5941 48.1405 59.8435 50.7768 59.0321 53.5806C58.8165 54.3253 58.139 54.8031 57.4111 54.7853Z" fill="#F58851"/>
<path fill-rule="evenodd" clip-rule="evenodd" d="M2.39789 71.4995C1.95908 71.4881 1.52876 71.2646 1.24043 70.8484C0.733957 70.1173 0.857461 69.0703 1.51615 68.5081C5.33852 65.2492 7.78457 61.8759 10.2407 56.479C12.4516 51.6207 13.0696 47.9889 14.5626 39.215C14.9654 36.8471 15.6714 34.5776 16.6609 32.4698C17.0446 31.6525 17.9531 31.3347 18.6901 31.7604C19.427 32.1861 19.7134 33.1937 19.3297 34.0112C18.4765 35.8286 17.8673 37.7877 17.5192 39.834C15.9704 48.9359 15.3294 52.7033 12.9268 57.9827C10.2485 63.8679 7.56342 67.5614 3.35008 71.1537C3.06642 71.3957 2.7297 71.5083 2.39789 71.4995Z" fill="#683D31"/>
<path fill-rule="evenodd" clip-rule="evenodd" d="M2.57491 61.2852C2.2142 61.2764 1.85357 61.1538 1.55195 60.9112C0.82856 60.3283 0.718734 59.2752 1.30676 58.5581C2.57313 57.0138 3.73075 55.1799 4.95014 52.7861C7.01386 48.7346 7.56735 45.8281 9.21055 37.2002C10.4663 30.6069 13.7637 24.7224 18.7462 20.1831C23.6063 15.7552 29.6387 13.009 36.1911 12.2413C36.8369 12.1656 37.4954 12.1093 38.1485 12.074C39.0805 12.0235 39.8753 12.7304 39.926 13.6528C39.9768 14.5753 39.2639 15.364 38.3329 15.4145C37.7503 15.446 37.163 15.4963 36.5874 15.5636C30.7446 16.2482 25.3652 18.6973 21.031 22.646C16.5881 26.6937 13.6478 31.941 12.528 37.8207C10.8185 46.7962 10.2427 49.8199 7.96393 54.2936C6.63259 56.9071 5.34966 58.933 3.92646 60.6678C3.58363 61.0859 3.07927 61.2975 2.57491 61.2852Z" fill="#864428"/>
<path fill-rule="evenodd" clip-rule="evenodd" d="M75.2319 74.2853C75.0936 74.2817 74.9543 74.2642 74.815 74.2299C71.8612 73.5067 68.8439 72.6562 67.2528 70.9243C66.0512 69.6159 65.6646 67.8269 66.1043 65.6056C66.4312 63.9554 67.1628 62.2736 67.7503 60.9213C68.0223 60.2966 68.2782 59.707 68.4355 59.2553C69.3367 56.659 70.2502 53.8625 70.832 51.0048C71.7664 46.4156 71.6897 41.8102 70.6056 37.3166C70.3886 36.4184 70.9979 35.5274 71.9664 35.3264C72.9349 35.125 73.8967 35.6905 74.1128 36.5886C75.3049 41.5273 75.3902 46.5855 74.3648 51.6229C73.746 54.6605 72.7937 57.5772 71.8564 60.2764C71.6603 60.8422 71.3807 61.4854 71.0841 62.1673C70.1696 64.2726 68.7861 67.4535 69.9896 68.7627C70.9827 69.8444 74.1905 70.6299 75.7323 71.0069C76.6922 71.2424 77.2646 72.1536 77.0116 73.0437C76.7946 73.8046 76.045 74.3028 75.2319 74.2853Z" fill="#BE5A37"/>
<path fill-rule="evenodd" clip-rule="evenodd" d="M74.0592 66.8567C74.0346 66.8557 74.0099 66.8548 73.9853 66.853C73.0654 66.7874 72.37 65.9514 72.4325 64.9862C72.4994 63.9507 73.1957 61.6608 74.377 58.0547C74.5372 57.5661 74.6754 57.1439 74.7414 56.9296C75.024 56.0087 75.9641 55.5026 76.8418 55.799C77.7194 56.0955 78.2018 57.082 77.9192 58.0039C77.8435 58.2505 77.7071 58.6662 77.5346 59.1936C77.112 60.485 75.8251 64.4135 75.7634 65.2235C75.7036 66.163 74.9474 66.8788 74.0592 66.8567Z" fill="#AD6842"/>
<path fill-rule="evenodd" clip-rule="evenodd" d="M69.7538 97.4995C69.5929 97.4961 69.4302 97.4706 69.2692 97.4214C65.8963 96.3892 63.1813 95.4123 60.7253 94.3462C58.0796 93.1986 55.9949 92.0925 53.9659 90.7614C51.1332 88.9044 48.7823 86.762 46.7767 84.2127C46.5591 83.9358 46.3497 83.6741 46.1429 83.4167C45.4732 82.5808 44.8385 81.79 44.1184 80.7247C44.0779 80.8071 44.042 80.8895 44.0132 80.9668C43.9728 81.0815 43.9251 81.1766 43.8586 81.2803C41.3199 85.261 39.2405 88.0473 36.443 91.2167C35.8397 91.8997 34.7646 91.9914 34.0414 91.4214C33.3184 90.8514 33.2212 89.8354 33.8243 89.1525C36.4699 86.1555 38.4485 83.5102 40.8515 79.7529C41.1527 78.9977 42.0229 77.2852 43.7606 77.0889C44.5913 76.9955 45.8157 77.2316 46.9277 78.8941C47.6011 79.8999 48.2133 80.6627 48.8605 81.4706C49.0736 81.7356 49.2902 82.0057 49.5141 82.2903C51.295 84.5542 53.3869 86.4596 55.9104 88.1144C57.7928 89.3495 59.6591 90.3375 62.1484 91.418C64.4804 92.4298 67.0766 93.3634 70.3193 94.3556C71.2155 94.6299 71.7064 95.538 71.4169 96.3841C71.1787 97.079 70.4892 97.5165 69.7538 97.4995Z" fill="#FF9F5E"/>
<path fill-rule="evenodd" clip-rule="evenodd" d="M17.0007 105.854C16.1316 105.833 15.2277 105.718 14.2764 105.506C13.3968 105.311 12.843 104.443 13.0397 103.569C13.2364 102.695 14.1087 102.144 14.9886 102.34C16.4472 102.664 17.7245 102.698 18.8935 102.445C24.7741 101.17 28.5164 97.5832 32.4592 93.3743C33.0736 92.7182 34.1062 92.6814 34.7659 93.2922C35.4255 93.903 35.4623 94.9295 34.8479 95.5857C30.6836 100.031 26.3828 104.143 19.5886 105.615C18.7548 105.796 17.8963 105.875 17.0007 105.854Z" fill="#683D31"/>
<path fill-rule="evenodd" clip-rule="evenodd" d="M66.9206 104C66.6982 103.994 66.4739 103.95 66.2588 103.862C65.6855 103.631 64.7005 103.282 63.6583 102.913C62.45 102.486 61.201 102.044 60.3028 101.682C59.2717 101.266 58.4279 100.915 57.6479 100.575C56.7728 100.195 56.398 99.2328 56.8106 98.4259C57.2233 97.6198 58.2664 97.2742 59.1415 97.6547C59.8911 97.9807 60.7062 98.3203 61.7059 98.7238C62.5303 99.0566 63.7414 99.4848 64.9129 99.8993C65.9957 100.282 67.0176 100.644 67.6674 100.907C68.5527 101.265 68.9552 102.219 68.5656 103.034C68.2712 103.652 67.6084 104.015 66.9206 104Z" fill="#E47749"/>
<path fill-rule="evenodd" clip-rule="evenodd" d="M19.3275 111.428C18.5527 111.409 17.8607 110.881 17.6846 110.111C17.4771 109.202 18.0637 108.303 18.9948 108.101C21.0723 107.65 22.8246 106.956 24.3517 105.983C27.8352 103.761 33.4233 99.3813 36.3772 96.181C38.5666 93.809 41.6592 89.9642 43.7728 86.2889C44.0588 85.7918 44.5824 85.4695 45.1652 85.4322C45.7481 85.3949 46.3118 85.6462 46.6624 86.1025C49.2231 89.4351 51.7684 91.7885 54.912 93.7335C55.718 94.2324 55.9566 95.272 55.4448 96.0576C54.9339 96.8424 53.8666 97.075 53.0616 96.577C50.244 94.8343 47.7934 92.733 45.4785 90.0609C43.3831 93.2719 40.8414 96.379 38.9454 98.4332C35.7636 101.88 29.9884 106.411 26.2431 108.8C24.3618 110.001 22.2366 110.847 19.7461 111.388C19.6057 111.418 19.4652 111.432 19.3275 111.428Z" fill="#CB864D"/>
<path fill-rule="evenodd" clip-rule="evenodd" d="M28.6107 115.142C28.0902 115.129 27.5815 114.877 27.2537 114.412C26.6976 113.623 26.8724 112.523 27.644 111.954C29.7106 110.432 31.4867 108.938 33.0538 107.621C37.6739 103.736 41.3236 100.667 48.0369 100.316C52.7274 100.069 58.5392 101.36 63.9824 103.857C64.8504 104.255 65.2381 105.297 64.8486 106.184C64.4591 107.07 63.4403 107.467 62.5723 107.069C57.6113 104.793 52.3769 103.613 48.214 103.832C42.6337 104.124 39.6929 106.597 35.2414 110.34C33.6346 111.691 31.8133 113.223 29.6575 114.811C29.3409 115.044 28.9729 115.152 28.6107 115.142Z" fill="#AD6842"/>
<path fill-rule="evenodd" clip-rule="evenodd" d="M38.7477 116.071C38.293 116.059 37.845 115.83 37.5291 115.398C36.9445 114.596 37.0336 113.402 37.728 112.727C42.2653 108.325 43.9631 106.678 48.5744 105.99C51.4152 105.567 54.3435 106.139 58.369 107.903C59.2174 108.276 59.6438 109.37 59.3205 110.348C58.9981 111.327 58.0483 111.817 57.1999 111.446C53.7161 109.917 51.2626 109.41 48.9964 109.747C45.4649 110.275 44.3816 111.225 39.8449 115.626C39.5259 115.936 39.1342 116.082 38.7477 116.071Z" fill="#883A0A"/>
<path fill-rule="evenodd" clip-rule="evenodd" d="M42.5952 100.285C41.7626 100.261 41.0324 99.5308 40.8839 98.5016C40.7148 97.3292 41.3632 96.2137 42.333 96.0081C42.6892 95.9331 44.5245 95.5639 45.6944 95.6582C46.6765 95.7377 47.4188 96.7646 47.3531 97.9529C47.2863 99.14 46.4387 100.039 45.4548 99.9579C44.906 99.9136 43.6571 100.103 42.9457 100.253C42.8282 100.278 42.7108 100.289 42.5952 100.285Z" fill="#FFC3B4"/>
<path fill-rule="evenodd" clip-rule="evenodd" d="M46.0232 61.2852C45.9074 61.2816 45.7907 61.2633 45.674 61.2277C44.87 60.983 44.3906 60.035 44.6025 59.1108C45.5272 55.0845 46.2098 50.9212 47.0003 46.1005C47.3678 43.8597 46.9535 41.5858 45.8335 39.6974C44.7136 37.809 43.0238 36.5361 41.0768 36.1132C40.3323 35.9516 39.5743 35.9212 38.825 36.0232C37.9995 36.1358 37.2511 35.4565 37.1534 34.5065C37.0558 33.5565 37.646 32.6953 38.4718 32.583C39.5251 32.4396 40.5894 32.4822 41.6348 32.709C44.3731 33.3037 46.7471 35.092 48.3203 37.7446C49.8934 40.3972 50.476 43.5929 49.9593 46.7429C49.1576 51.6291 48.4655 55.849 47.5138 59.9948C47.3321 60.7857 46.7035 61.3035 46.0232 61.2852Z" fill="#BE5A37"/>
<path fill-rule="evenodd" clip-rule="evenodd" d="M6.39892 90.0709C5.63002 90.0527 4.95537 89.4951 4.81742 88.7082C4.07822 84.4951 5.7208 80.262 9.10413 77.6609C14.7786 73.2993 18.7051 68.4573 22.233 61.4694C25.4583 55.0813 26.3971 50.1089 28.1012 41.0821C28.5614 38.6443 29.7694 36.4692 31.5945 34.7917C32.2643 34.176 33.3066 34.2198 33.9225 34.8895C34.5383 35.5592 34.4945 36.6013 33.8247 37.2169C32.5263 38.4104 31.6668 39.9582 31.3393 41.693C29.5795 51.015 28.6101 56.15 25.1748 62.9545C21.4097 70.4115 17.2043 75.5904 11.1126 80.2733C8.70503 82.1232 7.5366 85.1378 8.06314 88.1394C8.22037 89.0357 7.62122 89.8894 6.72487 90.0466C6.61524 90.0657 6.50613 90.0735 6.39892 90.0709Z" fill="#F7C5B0"/>
<path fill-rule="evenodd" clip-rule="evenodd" d="M76.3417 79.8567C76.1948 79.8532 76.0454 79.8287 75.8976 79.7817C71.9425 78.5214 67.0198 76.9533 63.6181 73.409C61.8425 71.5601 61.0748 69.1495 61.3352 66.2427C61.5445 63.9046 62.3755 61.5263 63.1091 59.4271C63.4277 58.5139 63.7291 57.6514 63.958 56.8591C64.8138 53.9007 65.5517 51.3467 65.9556 49.5673C66.1572 48.6772 67.0275 48.1224 67.8986 48.3288C68.7706 48.5348 69.3138 49.4233 69.1113 50.3133C68.686 52.1889 67.9353 54.7867 67.0659 57.7944C66.8105 58.677 66.4945 59.5814 66.1598 60.539C64.5413 65.1726 63.578 68.642 65.9309 71.0935C68.7629 74.043 73.0656 75.414 76.8627 76.6237C77.7167 76.8958 78.1924 77.8229 77.926 78.695C77.7056 79.4162 77.0463 79.8741 76.3417 79.8567Z" fill="#683D31"/>
<path fill-rule="evenodd" clip-rule="evenodd" d="M66.9863 46.4281C66.9664 46.4275 66.9466 46.4267 66.9259 46.4255C66.0243 46.3693 65.3366 45.5708 65.391 44.6421C65.7534 38.4858 64.1443 32.5166 60.7389 27.3798C56.6787 21.2546 50.5478 17.1244 43.4748 15.7498C42.788 15.6165 42.0857 15.5092 41.3877 15.431C40.4896 15.3303 39.8408 14.4989 39.9383 13.5739C40.0358 12.6489 40.8442 11.9814 41.7423 12.0813C42.524 12.169 43.3117 12.2893 44.0813 12.4388C52.0137 13.9803 58.8891 18.6119 63.442 25.4805C67.2606 31.2402 69.0638 37.9365 68.6583 44.8455C68.6048 45.7534 67.8628 46.4497 66.9863 46.4281Z" fill="#AD6842"/>
<path fill-rule="evenodd" clip-rule="evenodd" d="M70.9819 32.5C70.4168 32.5 69.88 32.1282 69.6474 31.5104C68.839 29.3591 67.814 27.2871 66.6023 25.3518C64.7666 22.4197 62.549 19.8665 60.0117 17.7631C59.3712 17.2318 59.2377 16.2218 59.7143 15.5074C60.191 14.7929 61.0969 14.6444 61.7383 15.1757C64.5257 17.4865 66.9607 20.2894 68.9747 23.5064C70.3032 25.6288 71.4273 27.9024 72.3158 30.2642C72.6246 31.0854 72.2776 32.0301 71.5409 32.3743C71.3579 32.4595 71.1688 32.5 70.9819 32.5Z" fill="#CB864D"/>
<path fill-rule="evenodd" clip-rule="evenodd" d="M9.0718 26.9285C8.76042 26.9285 8.44574 26.8426 8.16653 26.6629C7.40876 26.1752 7.20056 25.1816 7.70141 24.4438C9.27185 22.13 11.1347 19.9818 13.2381 18.0588C16.0471 15.4907 19.232 13.3788 22.7043 11.7819C26.1794 10.1838 29.8797 9.13021 33.7025 8.6505C35.4194 8.43517 37.1662 8.33756 38.8959 8.36036C40.8816 8.38662 42.8812 8.57188 44.8391 8.91109C48.69 9.57835 52.3683 10.8159 55.7735 12.5897C56.5747 13.0069 56.8765 13.9773 56.4481 14.7573C56.0198 15.5372 55.0234 15.8313 54.2222 15.4142C51.1231 13.7996 47.7717 12.6727 44.2633 12.0647C42.4797 11.7558 40.6587 11.5871 38.8508 11.5632C37.277 11.5425 35.6861 11.6312 34.1228 11.8273C27.0988 12.7087 20.6555 15.671 15.4894 20.394C13.5721 22.1469 11.875 24.1037 10.4453 26.2099C10.129 26.676 9.60552 26.9285 9.0718 26.9285Z" fill="#FF9F5E"/>
<path fill-rule="evenodd" clip-rule="evenodd" d="M1.54575 50.1428C1.40388 50.1428 1.25957 50.1215 1.11639 50.0765C0.296845 49.8192 -0.17568 48.8885 0.0610711 47.9978C0.635072 45.8377 1.14017 42.8179 1.9835 37.6663C2.4838 34.6104 3.32175 31.6441 4.47398 28.8498C4.82288 28.0037 5.7369 27.6252 6.51532 28.0044C7.29382 28.3837 7.64198 29.3769 7.29308 30.223C6.24412 32.7668 5.48101 35.469 5.02502 38.2545C4.16345 43.5171 3.64597 46.6076 3.02905 48.9294C2.83367 49.6647 2.21618 50.1428 1.54575 50.1428Z" fill="#CB864D"/>
<path fill-rule="evenodd" clip-rule="evenodd" d="M19.3432 6.5C18.7055 6.5 18.0942 6.18515 17.8048 5.64829C17.4055 4.90755 17.7701 4.02467 18.6191 3.67637C22.7582 1.97804 27.2461 0.848292 31.9578 0.318623C34.0392 0.084734 36.1571 -0.0213092 38.2537 0.00354099C40.6604 0.0319859 43.0842 0.23321 45.4578 0.601587C46.6016 0.779134 47.7535 1.00232 48.8821 1.26496C49.7885 1.47596 50.3269 2.28812 50.085 3.07903C49.8432 3.86994 48.9125 4.34014 48.0061 4.12899C46.9698 3.88791 45.9128 3.68294 44.8622 3.51993C42.6704 3.17968 40.4311 2.99385 38.208 2.96752C36.2715 2.94462 34.3145 3.04254 32.392 3.25861C28.0313 3.74881 23.8839 4.79182 20.0651 6.35871C19.8314 6.4546 19.5855 6.5 19.3432 6.5Z" fill="#AD6842"/>
<path fill-rule="evenodd" clip-rule="evenodd" d="M67.1078 16.7143C66.7071 16.7143 66.3057 16.5595 65.994 16.2479C62.3874 12.6414 58.3193 9.8158 53.903 7.84994C53.0874 7.48684 52.7096 6.50484 53.0586 5.65664C53.4075 4.80836 54.3519 4.41504 55.1676 4.77805C59.9422 6.90344 64.3338 9.95207 68.2216 13.8394C68.8611 14.4788 68.8805 15.5365 68.2656 16.2016C67.9505 16.5427 67.5296 16.7143 67.1078 16.7143Z" fill="#D67F61"/>
</svg>
