<svg width="303" height="331" viewBox="0 0 303 331" fill="none" xmlns="http://www.w3.org/2000/svg">
<path fill-rule="evenodd" clip-rule="evenodd" d="M0.0639274 15.2787L6.26059e-05 1.38431L13.8985 1.32043L0.0639274 15.2787Z" fill="#43FFDC"/>
<path fill-rule="evenodd" clip-rule="evenodd" d="M0.196984 44.225L0.133119 30.3306L14.0316 30.2667L0.196984 44.225Z" fill="#43FFDC"/>
<path fill-rule="evenodd" clip-rule="evenodd" d="M0.330041 73.1718L0.266176 59.2774L14.1647 59.2135L0.330041 73.1718Z" fill="#43FFDC"/>
<path fill-rule="evenodd" clip-rule="evenodd" d="M0.457726 100.961L0.393861 87.0664L14.2923 87.0026L0.457726 100.961Z" fill="#43FFDC"/>
<path fill-rule="evenodd" clip-rule="evenodd" d="M0.590783 129.908L0.526918 116.013L14.4254 115.949L0.590783 129.908Z" fill="#43FFDC"/>
<path fill-rule="evenodd" clip-rule="evenodd" d="M0.72384 158.854L0.659975 144.959L14.5584 144.896L0.72384 158.854Z" fill="#43FFDC"/>
<path fill-rule="evenodd" clip-rule="evenodd" d="M0.851525 186.643L0.78766 172.749L14.6861 172.685L0.851525 186.643Z" fill="#43FFDC"/>
<path fill-rule="evenodd" clip-rule="evenodd" d="M0.984582 215.59L0.920717 201.695L14.8192 201.631L0.984582 215.59Z" fill="#43FFDC"/>
<path fill-rule="evenodd" clip-rule="evenodd" d="M1.11764 244.537L1.05377 230.642L14.9522 230.578L1.11764 244.537Z" fill="#43FFDC"/>
<path fill-rule="evenodd" clip-rule="evenodd" d="M1.25069 273.483L1.18683 259.589L15.0853 259.525L1.25069 273.483Z" fill="#43FFDC"/>
<path fill-rule="evenodd" clip-rule="evenodd" d="M1.37862 301.272L1.31476 287.377L15.2132 287.314L1.37862 301.272Z" fill="#43FFDC"/>
<path fill-rule="evenodd" clip-rule="evenodd" d="M1.51168 330.219L1.44782 316.324L15.3463 316.26L1.51168 330.219Z" fill="#43FFDC"/>
<path fill-rule="evenodd" clip-rule="evenodd" d="M29.0192 15.1454L28.9554 1.25101L42.8539 1.18713L29.0192 15.1454Z" fill="#43FFDC"/>
<path fill-rule="evenodd" clip-rule="evenodd" d="M29.1523 44.0922L42.9869 30.1339L29.0884 30.1978L29.1523 44.0922Z" fill="#43FFDC"/>
<path fill-rule="evenodd" clip-rule="evenodd" d="M29.2851 73.0385L43.1197 59.0802L29.2213 59.1441L29.2851 73.0385Z" fill="#43FFDC"/>
<path fill-rule="evenodd" clip-rule="evenodd" d="M29.413 100.828L43.2477 86.8693L29.3492 86.9331L29.413 100.828Z" fill="#43FFDC"/>
<path fill-rule="evenodd" clip-rule="evenodd" d="M29.5461 129.774L43.3807 115.816L29.4822 115.88L29.5461 129.774Z" fill="#43FFDC"/>
<path fill-rule="evenodd" clip-rule="evenodd" d="M29.6792 158.721L43.5138 144.763L29.6153 144.827L29.6792 158.721Z" fill="#43FFDC"/>
<path fill-rule="evenodd" clip-rule="evenodd" d="M29.8068 186.51L43.6415 172.551L29.743 172.615L29.8068 186.51Z" fill="#43FFDC"/>
<path fill-rule="evenodd" clip-rule="evenodd" d="M29.9399 215.456L43.7745 201.498L29.876 201.562L29.9399 215.456Z" fill="#43FFDC"/>
<path fill-rule="evenodd" clip-rule="evenodd" d="M30.073 244.403L43.9076 230.445L30.0091 230.509L30.073 244.403Z" fill="#43FFDC"/>
<path fill-rule="evenodd" clip-rule="evenodd" d="M30.206 273.35L44.0406 259.392L30.1422 259.456L30.206 273.35Z" fill="#43FFDC"/>
<path fill-rule="evenodd" clip-rule="evenodd" d="M30.3337 301.139L44.1683 287.18L30.2698 287.244L30.3337 301.139Z" fill="#43FFDC"/>
<path fill-rule="evenodd" clip-rule="evenodd" d="M30.4668 330.085L30.4029 316.191L44.3014 316.127L30.4668 330.085Z" fill="#43FFDC"/>
<path fill-rule="evenodd" clip-rule="evenodd" d="M57.9743 15.0121L57.9104 1.11771L71.8089 1.05383L57.9743 15.0121Z" fill="#43FFDC"/>
<path fill-rule="evenodd" clip-rule="evenodd" d="M58.1074 43.9589L71.942 30.0006L58.0435 30.0645L58.1074 43.9589Z" fill="#43FFDC"/>
<path fill-rule="evenodd" clip-rule="evenodd" d="M58.2404 72.9057L72.0751 58.9474L58.1766 59.0113L58.2404 72.9057Z" fill="#43FFDC"/>
<path fill-rule="evenodd" clip-rule="evenodd" d="M58.3681 100.695L72.2027 86.7364L58.3042 86.8003L58.3681 100.695Z" fill="#43FFDC"/>
<path fill-rule="evenodd" clip-rule="evenodd" d="M58.5012 129.641L72.3358 115.683L58.4373 115.747L58.5012 129.641Z" fill="#43FFDC"/>
<path fill-rule="evenodd" clip-rule="evenodd" d="M58.6342 158.588L72.4688 144.629L58.5704 144.693L58.6342 158.588Z" fill="#43FFDC"/>
<path fill-rule="evenodd" clip-rule="evenodd" d="M58.7619 186.377L72.5965 172.419L58.698 172.482L58.7619 186.377Z" fill="#43FFDC"/>
<path fill-rule="evenodd" clip-rule="evenodd" d="M58.895 215.324L72.7296 201.365L58.8311 201.429L58.895 215.324Z" fill="#43FFDC"/>
<path fill-rule="evenodd" clip-rule="evenodd" d="M59.028 244.27L72.8626 230.312L58.9642 230.376L59.028 244.27Z" fill="#43FFDC"/>
<path fill-rule="evenodd" clip-rule="evenodd" d="M85.7712 14.8847L85.7073 0.990269L99.6058 0.926386L85.7712 14.8847Z" fill="#43FFDC"/>
<path fill-rule="evenodd" clip-rule="evenodd" d="M85.9042 43.8315L99.7389 29.8732L85.8404 29.937L85.9042 43.8315Z" fill="#43FFDC"/>
<path fill-rule="evenodd" clip-rule="evenodd" d="M86.0373 72.7778L99.8719 58.8195L85.9734 58.8833L86.0373 72.7778Z" fill="#43FFDC"/>
<path fill-rule="evenodd" clip-rule="evenodd" d="M86.165 100.567L99.9996 86.6085L86.1011 86.6724L86.165 100.567Z" fill="#43FFDC"/>
<path fill-rule="evenodd" clip-rule="evenodd" d="M86.298 129.514L100.133 115.555L86.2342 115.619L86.298 129.514Z" fill="#43FFDC"/>
<path fill-rule="evenodd" clip-rule="evenodd" d="M86.4311 158.46L100.266 144.502L86.3672 144.566L86.4311 158.46Z" fill="#43FFDC"/>
<path fill-rule="evenodd" clip-rule="evenodd" d="M86.559 186.249L100.394 172.291L86.4952 172.355L86.559 186.249Z" fill="#43FFDC"/>
<path fill-rule="evenodd" clip-rule="evenodd" d="M86.6921 215.196L100.527 201.237L86.6282 201.301L86.6921 215.196Z" fill="#43FFDC"/>
<path fill-rule="evenodd" clip-rule="evenodd" d="M86.8251 244.142L100.66 230.184L86.7613 230.248L86.8251 244.142Z" fill="#43FFDC"/>
<path fill-rule="evenodd" clip-rule="evenodd" d="M114.727 14.7514L114.663 0.856968L128.561 0.793085L114.727 14.7514Z" fill="#43FFDC"/>
<path fill-rule="evenodd" clip-rule="evenodd" d="M114.86 43.6982L128.694 29.7399L114.796 29.8037L114.86 43.6982Z" fill="#43FFDC"/>
<path fill-rule="evenodd" clip-rule="evenodd" d="M114.993 72.6449L128.827 58.6866L114.929 58.7505L114.993 72.6449Z" fill="#43FFDC"/>
<path fill-rule="evenodd" clip-rule="evenodd" d="M115.12 100.434L128.955 86.4752L115.056 86.5391L115.12 100.434Z" fill="#43FFDC"/>
<path fill-rule="evenodd" clip-rule="evenodd" d="M115.253 129.38L129.088 115.422L115.19 115.486L115.253 129.38Z" fill="#43FFDC"/>
<path fill-rule="evenodd" clip-rule="evenodd" d="M115.386 158.327L129.221 144.369L115.323 144.433L115.386 158.327Z" fill="#43FFDC"/>
<path fill-rule="evenodd" clip-rule="evenodd" d="M115.514 186.116L129.349 172.158L115.45 172.222L115.514 186.116Z" fill="#43FFDC"/>
<path fill-rule="evenodd" clip-rule="evenodd" d="M115.647 215.062L129.482 201.104L115.583 201.168L115.647 215.062Z" fill="#43FFDC"/>
<path fill-rule="evenodd" clip-rule="evenodd" d="M115.78 244.009L129.615 230.051L115.716 230.115L115.78 244.009Z" fill="#43FFDC"/>
<path fill-rule="evenodd" clip-rule="evenodd" d="M143.682 14.6186L143.618 0.724156L157.516 0.660272L143.682 14.6186Z" fill="#43FFDC"/>
<path fill-rule="evenodd" clip-rule="evenodd" d="M143.815 43.5649L157.649 29.6066L143.751 29.6704L143.815 43.5649Z" fill="#43FFDC"/>
<path fill-rule="evenodd" clip-rule="evenodd" d="M143.948 72.5116L157.782 58.5533L143.884 58.6172L143.948 72.5116Z" fill="#43FFDC"/>
<path fill-rule="evenodd" clip-rule="evenodd" d="M144.075 100.301L157.91 86.3424L144.012 86.4063L144.075 100.301Z" fill="#43FFDC"/>
<path fill-rule="evenodd" clip-rule="evenodd" d="M144.208 129.247L158.043 115.289L144.145 115.353L144.208 129.247Z" fill="#43FFDC"/>
<path fill-rule="evenodd" clip-rule="evenodd" d="M144.342 158.194L158.176 144.236L144.278 144.3L144.342 158.194Z" fill="#43FFDC"/>
<path fill-rule="evenodd" clip-rule="evenodd" d="M144.469 185.983L158.304 172.025L144.405 172.088L144.469 185.983Z" fill="#43FFDC"/>
<path fill-rule="evenodd" clip-rule="evenodd" d="M144.602 214.93L158.437 200.971L144.538 201.035L144.602 214.93Z" fill="#43FFDC"/>
<path fill-rule="evenodd" clip-rule="evenodd" d="M144.735 243.876L158.57 229.918L144.671 229.982L144.735 243.876Z" fill="#43FFDC"/>
<path fill-rule="evenodd" clip-rule="evenodd" d="M172.637 14.4853L172.573 0.590855L186.471 0.526972L172.637 14.4853Z" fill="#43FFDC"/>
<path fill-rule="evenodd" clip-rule="evenodd" d="M172.77 43.432L186.604 29.4737L172.706 29.5376L172.77 43.432Z" fill="#43FFDC"/>
<path fill-rule="evenodd" clip-rule="evenodd" d="M172.903 72.3788L186.737 58.4205L172.839 58.4844L172.903 72.3788Z" fill="#43FFDC"/>
<path fill-rule="evenodd" clip-rule="evenodd" d="M173.03 100.167L186.865 86.2091L172.967 86.273L173.03 100.167Z" fill="#43FFDC"/>
<path fill-rule="evenodd" clip-rule="evenodd" d="M173.164 129.114L186.998 115.156L173.1 115.22L173.164 129.114Z" fill="#43FFDC"/>
<path fill-rule="evenodd" clip-rule="evenodd" d="M173.297 158.061L187.131 144.103L173.233 144.167L173.297 158.061Z" fill="#43FFDC"/>
<path fill-rule="evenodd" clip-rule="evenodd" d="M173.425 185.85L187.259 171.891L173.361 171.955L173.425 185.85Z" fill="#43FFDC"/>
<path fill-rule="evenodd" clip-rule="evenodd" d="M173.558 214.796L187.392 200.838L173.494 200.902L173.558 214.796Z" fill="#43FFDC"/>
<path fill-rule="evenodd" clip-rule="evenodd" d="M173.691 243.743L187.525 229.785L173.627 229.849L173.691 243.743Z" fill="#43FFDC"/>
<path fill-rule="evenodd" clip-rule="evenodd" d="M201.592 14.352L201.528 0.457554L215.427 0.393671L201.592 14.352Z" fill="#43FFDC"/>
<path fill-rule="evenodd" clip-rule="evenodd" d="M201.725 43.2987L215.56 29.3404L201.661 29.4043L201.725 43.2987Z" fill="#43FFDC"/>
<path fill-rule="evenodd" clip-rule="evenodd" d="M201.858 72.2455L215.693 58.2872L201.794 58.3511L201.858 72.2455Z" fill="#43FFDC"/>
<path fill-rule="evenodd" clip-rule="evenodd" d="M201.986 100.035L215.82 86.0763L201.922 86.1402L201.986 100.035Z" fill="#43FFDC"/>
<path fill-rule="evenodd" clip-rule="evenodd" d="M202.119 128.981L215.953 115.023L202.055 115.087L202.119 128.981Z" fill="#43FFDC"/>
<path fill-rule="evenodd" clip-rule="evenodd" d="M202.252 157.928L216.087 143.969L202.188 144.033L202.252 157.928Z" fill="#43FFDC"/>
<path fill-rule="evenodd" clip-rule="evenodd" d="M229.389 14.2245L229.325 0.330113L243.223 0.266229L229.389 14.2245Z" fill="#43FFDC"/>
<path fill-rule="evenodd" clip-rule="evenodd" d="M229.522 43.1713L243.357 29.213L229.458 29.2769L229.522 43.1713Z" fill="#43FFDC"/>
<path fill-rule="evenodd" clip-rule="evenodd" d="M229.655 72.1181L243.49 58.1598L229.591 58.2237L229.655 72.1181Z" fill="#43FFDC"/>
<path fill-rule="evenodd" clip-rule="evenodd" d="M229.783 99.9067L243.617 85.9484L229.719 86.0122L229.783 99.9067Z" fill="#43FFDC"/>
<path fill-rule="evenodd" clip-rule="evenodd" d="M229.916 128.853L243.75 114.895L229.852 114.959L229.916 128.853Z" fill="#43FFDC"/>
<path fill-rule="evenodd" clip-rule="evenodd" d="M230.049 157.8L243.883 143.842L229.985 143.906L230.049 157.8Z" fill="#43FFDC"/>
<path fill-rule="evenodd" clip-rule="evenodd" d="M258.344 14.0912L258.28 0.196812L272.179 0.132929L258.344 14.0912Z" fill="#43FFDC"/>
<path fill-rule="evenodd" clip-rule="evenodd" d="M258.477 43.038L272.312 29.0797L258.413 29.1436L258.477 43.038Z" fill="#43FFDC"/>
<path fill-rule="evenodd" clip-rule="evenodd" d="M258.61 71.9848L272.445 58.0265L258.546 58.0904L258.61 71.9848Z" fill="#43FFDC"/>
<path fill-rule="evenodd" clip-rule="evenodd" d="M258.738 99.7734L272.572 85.8151L258.674 85.8789L258.738 99.7734Z" fill="#43FFDC"/>
<path fill-rule="evenodd" clip-rule="evenodd" d="M258.871 128.72L272.705 114.762L258.807 114.826L258.871 128.72Z" fill="#43FFDC"/>
<path fill-rule="evenodd" clip-rule="evenodd" d="M259.004 157.667L272.838 143.709L258.94 143.772L259.004 157.667Z" fill="#43FFDC"/>
<path fill-rule="evenodd" clip-rule="evenodd" d="M301.134 0.00011607L287.299 13.9584L287.235 0.0639996L301.134 0.00011607Z" fill="#43FFDC"/>
<path fill-rule="evenodd" clip-rule="evenodd" d="M301.267 28.9464L287.432 42.9047L287.368 29.0103L301.267 28.9464Z" fill="#43FFDC"/>
<path fill-rule="evenodd" clip-rule="evenodd" d="M301.4 57.8932L287.565 71.8515L287.502 57.9571L301.4 57.8932Z" fill="#43FFDC"/>
<path fill-rule="evenodd" clip-rule="evenodd" d="M301.528 85.6822L287.693 99.6405L287.629 85.7461L301.528 85.6822Z" fill="#43FFDC"/>
<path fill-rule="evenodd" clip-rule="evenodd" d="M301.661 114.629L287.826 128.587L287.762 114.693L301.661 114.629Z" fill="#43FFDC"/>
<path fill-rule="evenodd" clip-rule="evenodd" d="M301.794 143.576L287.959 157.534L287.895 143.64L301.794 143.576Z" fill="#43FFDC"/>
</svg>
