<?xml version="1.0" encoding="UTF-8"?>
<svg width="205px" height="378px" viewBox="0 0 205 378" version="1.1" xmlns="http://www.w3.org/2000/svg" xmlns:xlink="http://www.w3.org/1999/xlink">
    <!-- Generator: Sketch 51.3 (57544) - http://www.bohemiancoding.com/sketch -->
    <title>wk-sprite-picca</title>
    <desc>Created with Sketch.</desc>
    <defs></defs>
    <g id="wk-sprite-picca" stroke="none" stroke-width="1" fill="none" fill-rule="evenodd">
        <path d="M35,2.13162821e-14 L45,2.13162821e-14 L125,119 L120,126 L42,10 L35,2.13162821e-14 Z M58,1.42108547e-14 L68,1.42108547e-14 L136,102 L131,109 L58,1.42108547e-14 Z M81,0 L91,0 L148,85 L143,92 L81,0 Z M104,1.42108547e-14 L114,1.42108547e-14 L160,68 L155,75 L104,1.42108547e-14 Z M127,3.55271368e-14 L137,3.55271368e-14 L171,51 L166,58 L127,3.55271368e-14 Z M149,4.26325641e-14 L159,4.26325641e-14 L182,34 L177,41 L149,4.26325641e-14 Z M172,3.55271368e-14 L182,3.55271368e-14 L193,17 L188,24 L172,3.55271368e-14 Z M195,4.26325641e-14 L205,4.26325641e-14 L200,7 L195,4.26325641e-14 Z M21,4.26325641e-14 L97,110 L86,126 L0,4.26325641e-14 L21,4.26325641e-14 Z" id="Picca" fill="#64687A"></path>
        <path d="M35,252 L45,252 L125,371 L120,378 L42,262 L35,252 Z M58,252 L68,252 L136,354 L131,361 L58,252 Z M81,252 L91,252 L148,337 L143,344 L81,252 Z M104,252 L114,252 L160,320 L155,327 L104,252 Z M127,252 L137,252 L171,303 L166,310 L127,252 Z M149,252 L159,252 L182,286 L177,293 L149,252 Z M172,252 L182,252 L193,269 L188,276 L172,252 Z M195,252 L205,252 L200,259 L195,252 Z M21,252 L97,362 L86,378 L0,252 L21,252 Z" id="Picca" fill="#EBF3F5"></path>
        <path d="M35,126 L45,126 L125,245 L120,252 L42,136 L35,126 Z M58,126 L68,126 L136,228 L131,235 L58,126 Z M81,126 L91,126 L148,211 L143,218 L81,126 Z M104,126 L114,126 L160,194 L155,201 L104,126 Z M127,126 L137,126 L171,177 L166,184 L127,126 Z M149,126 L159,126 L182,160 L177,167 L149,126 Z M172,126 L182,126 L193,143 L188,150 L172,126 Z M195,126 L205,126 L200,133 L195,126 Z M21,126 L97,236 L86,252 L0,126 L21,126 Z" id="Picca-Copy" fill="#B2B5C4"></path>
    </g>
</svg>